<svg viewBox="0 0 440 30.7209" xmlns="http://www.w3.org/2000/svg" xmlns:xlink="http://www.w3.org/1999/xlink" width="440.000000" height="30.720886" fill="none" customFrame="#000000">
	<defs>
		<g id="pixso_custom_effect_0">
			<effect x="0.000000" y="2.000000" visibility="visible" fill="rgb(225,228,230)" fill-opacity="1" effectType="dropShadow" stdDeviation="0" radius="0" />
		</g>
		<filter id="filter_0" width="440.000000" height="30.720886" x="0.000000" y="0.000000" filterUnits="userSpaceOnUse" customEffect="url(#pixso_custom_effect_0)" color-interpolation-filters="sRGB">
			<feFlood flood-opacity="0" result="BackgroundImageFix" />
			<feOffset dx="0.000000" dy="2.000000" in="SourceAlpha" />
			<feColorMatrix type="matrix" values="0 0 0 0 0.882353 0 0 0 0 0.894118 0 0 0 0 0.901961 0 0 0 1 0 " />
			<feBlend result="effect_dropShadow_1" in2="BackgroundImageFix" mode="normal" />
			<feBlend result="shape" in="SourceGraphic" in2="effect_dropShadow_1" mode="normal" />
		</filter>
	</defs>
	<g filter="url(#filter_0)">
		<path id="Down" d="M0.5 1L0 0L440 0L439 1L437.5 5L436.5 7L438.5 9L437 9L437 10L436 10.5L435 10.5C435.167 10.8333 435.4 11.5 435 11.5L433.5 11.5L432.5 11.5L432 10.5L431.5 11L430 11.5L430 12L431 12.5L430.5 14L429.5 13.5L428.5 13.5L428.5 14L429.5 14.5L428 15L427 14.5L425.5 14.5L424.5 15L424 14.5L422 14L421 14.5L419.5 15L419 14.5L417.5 14L416.5 14.5L416 13.5L415 12.5L414.5 12.5L414.5 13L413.5 14C413.667 13.8333 414 13.6 414 14L414 14.5L413.5 15L411 14.5L410.5 14L410 13L409 13L407.5 14L407 13L406.5 12L405.5 12L404.5 12L404 13.5L403 13.5L402.5 12.5L402 12L401 12.5L401 13.5L399.5 13.5L399.5 13L398.5 12.5L397.5 13L395.5 12.5L395 13.5L394 14.5L393 14L392 14L390.5 13.5L389.5 14.5L389.5 15L387.5 15L386 16L385 16L384 15L383.5 14L382 15C381.667 15.1667 381 15.4 381 15C381 14.6 380.333 13.8333 380 13.5L379.5 14L379.5 15L379.5 16L378.5 16.5L378 15.5L377 16.5L377.5 17.5L377.5 19L376.5 19.5L375.5 21L374.5 20.5L374 20L373 19.5L372.5 20L372.5 20.5L371.5 20.5L371 21.5L370.5 21L369.5 20.5L369.5 19.5L368.5 20L368 19.5L367 20L367 20.5L366 21.5L365 21L365.5 20.5L364 20L364 21L364 21.5L362.5 21.5L361.5 21L360.5 20L360 21L360.5 22L359.5 22.5L358.5 22L357.5 22L357.5 22.5L356.5 22.5L355.5 23.5L354.5 23.5L354 22.5L353 23L352 23.5L351.5 23L351 22L350.5 22.5L349.5 23L349.5 22.5C349 22.6667 348 22.9 348 22.5C348 22.1 347.667 21 347.5 20.5L347 21.5L347 22.5L346.5 23.5L346.5 24L345.5 24.5L345 24L344 24L343 24L342.5 25L343 26L342 26L342.5 27L341.5 26.5L340.5 25L340 25.5L340 26.5L341 27L340.5 28L340 28L339 27L338.5 26.5L338.5 27.5L339 28.5C338.667 28.6667 338 28.9 338 28.5L338 27.5L337 27.5L337 28.5L336 28L335.5 27L335 28L334 27.5L333 27.5L332.5 26.5L331 27L329.5 27L329 26.5L328.5 26L328 26.5L327.5 26.5C327.667 26.1667 327.9 25.5 327.5 25.5L326 25.5L326 25L325.5 24L324.5 24L324 23L324 24L323 25L322.5 24L322 23.5L321 22.5L321.5 22L321.5 21L320.5 22L320 21.5L320 21L319 20.5L319.5 21.5L318.5 21.5L318 21L317.5 21.5L317 21L316.5 20.5L316.5 21.5L315.5 21.5L315.5 20.5L315 20L315 21L314 21.5L313.5 21L312.5 20.5L312.5 22L312 22L311.5 21.5L311 20.5L310 21L309 20L308 19.5L308 20.5L307 20L305.5 18.5L305 17.5L304 18.5L303.5 18.5L303 17.5L302.5 18.5L301.5 19L301.5 18L301.5 17L301 18L300.5 18.5L300 18L300 17.5L299 17.5L299 16.5L298 17L297 17.5L296.5 17L296.5 16L295.5 17L295.5 18L295 17L294.5 17.5L293.5 18.5L293 18L291 17.5L291.5 18L291 18.5L289.5 17.5L289 18L289 18.5L287.5 18L287 17L286.5 17.5L287 18.5L288.5 19L288 19.5L288 20L288 20.5L287 20.5L287 19.5L286 20L285 19L284.5 17.5L284 16.5L283 16.5L282.5 15.5L281.5 14.5L281 15L281 16L281.5 16.5L281.5 17.5L281 17L280 16L279.5 15L279 16L279 16.5L278.5 16L278 15L277 15.5L276.5 14.5L275.5 14.5L275 15.5L274.5 16L274 17L273 17L273 17.5L273.5 18L272.5 18L272 17.5L271.5 18L272 18.5L270.5 18L270.5 19L269.5 19L269.5 19.5L269 20L268 19L267.5 19.5L268 20L267 20L266.5 19L266.5 18L266 19L266 19.5L265 19.5L265 18L264.5 19L263.5 18.5L263.5 18L262.5 18.5L262.5 17L262 16.5L261.5 17.5L261 18L260 17L259.5 18L259 18L258.5 17.5L258 18L258 18.5L257.5 18.5L257 17.5L256.5 18L256.5 18.5L256 18L255 17.5L255 17L254.5 17.5L254.5 18L254 18L253.5 17L253 17L253 17.5L253 18L252 18L252 17L251.5 17L251 17.5L250.5 16.5L250 17L250 16L249.5 16.5L249.5 17L249.5 17.5L249 18L248.5 17.5L248.5 16.5L248 16.5L247.5 16.5L247 16L246.5 17L246 16.5L245.5 17L245 16.5L244 16L244 16.5L243.5 17L243 18L242.5 18L242.5 17L242 17L241.5 17.5L241 18L240.5 17.5L239.5 17L239.5 17.5L238.5 18L239 17.5L238 17L237.5 16L236.5 16L237 16.5L237 17L236 17.5L235.5 18L235.5 17L235 16.5L234 17L234 17.5L233.5 18L233 17L232 17L232 17.5L232.5 18.5L232 18.5L231.5 18L230.5 17.5L230.5 18L230 18.5L229.5 18L228.5 18.5L228 19L227.5 18L227 17L226.5 18L226 18.5L225.5 18.5L224.5 18L224 18L223.5 19L223 18.5L222.5 19L222.5 20L221.5 20L221 20.5L220 19.5L220 19L219 18.5L218 17.5L218 18.5L217.5 19L217 20L216 19L215 19.5L215.5 20.5L214.5 21L213.5 20.5L213.5 21.5L214.5 22L214.5 23L214 23.5L213.5 23L212.5 22.5L212.5 23.5L213 24L211.5 24L211 23.5L210.5 24.5L210 25L209 24.5L208 24.5L207.5 23L206.5 23.5L206.5 23L206.5 22.5L205.5 23L205.5 23.5L205 23L205 22.5L204.5 22L204.5 23L204 23L203.5 22L203 22.5L203 23.5L202.5 24L202.5 23.5L202 22.5L201.5 23L201 23L201 22L200 22L199.5 21L199 22L199 22.5L198.5 22.5L198 21.5L197.5 21.5L197.5 22L196.5 22L196.5 21.5L195.5 21L195.5 21.5L194.5 21.5L194 21.5L194 22L193 22.5L193 22L192.5 21.5L193 21L192.5 20.5L192 20.5L192 21L191.5 21L191 20.5L190.5 20L190.5 21L190 21.5L189 21L189.5 20.5L188.5 20.5L188.5 21.5L188 22L188 21.5L187.5 21L187 22L186.5 21L186 21L186 20L185.5 19.5L185 18.5L184 18L184 18.5L183 18L183 18.5L182.5 19L182.5 19.5L182 19L181.5 18.5L181 19L180.5 18.5L180 18.5L179.5 19L179 19.5L178.5 19L178.5 18.5L178 18.5L178 19L177.5 19L177 17.5L177 16.5L176.5 16.5L176 17.5L175.5 17L175 16.5L175 17L174 17.5L174 18L173.5 18L173 17.5L173 17L172.5 17.5L172 18L171.5 18.5L171 17.5L170.5 16.5L170.5 17.5L170.5 18.5L170 19L170 18.5L169.5 18L169 17L168.5 17L168 17.5L167.5 17.5L167 17L166.5 17.5L166 18L166 16.5L165.5 17L165.5 18L165 18L164.5 19L164 18.5L163.5 17.5L163.5 18.5L163.5 19L162.5 19L162.5 18L162 17.5L161.5 18L161 18L160.5 17.5L160.5 16.5L160 16.5L160 17L159.5 17.5L159 17L159 16.5L158.5 17L158.5 17.5L158 18L158 17.5L157.5 17L157.5 17.5L157 18L157 18.5L156.5 18L156.5 17L156 17.5L155 18L155 18.5L154.5 18.5L154 18L154 17L153.5 17L153 16L152.5 16L152 16.5L152 15.5L151.5 15L151 15.5L150.5 16L150.5 15L150 14.5L150 15.5L149.5 16L149.5 15L149 15.5L149 16.5L148 15.5L148 15L147 14.5L147 14L146.5 14L146.5 14.5L146 15L145.5 14.5L145 15.5L145 16L144.5 16L144.5 15.5L144 15L143.5 15.5L144 16L143.5 16.5L143 16L142.5 15L142 15L141.264 14L141 14.5L141.5 15L142.5 16L142 16.5L142 16L141 16.5L141.5 17L141.264 17.25L141 17L140.5 16.5L140 16.5L140.5 17L140.5 17.5L140 18L140 17.25L139.277 17.25L139 18L138.822 17.25L138.5 16.5L138.5 17L138.5 18L137.5 18.5L137.5 17.5L137.248 17.25L136.5 17.25L137 18L137 18.5L136.5 18L136 17.5L136 18.5L136.5 19L136 19.5L135.5 20L135.5 19L135 18.5L134.5 18.5L134 19L135 19.5L134.5 20L134 20L133.5 19.5L133.5 19L133.5 18.5L132 18L132.5 17.5L131.743 17.25L131 17L130.5 16.5L131 16L130 16L129.5 16.5L129 16.5L129 16L128.5 16.5L128.5 17C128.333 17.0833 127.946 17.25 127.728 17.25C127.51 17.25 127.485 17.0833 127.5 17L127 16.5L126.5 17C126.5 17.0833 126.456 17.25 126.279 17.25C126.102 17.25 126.019 17.0833 126 17L126 16.5L125.5 17.5L125.5 18.5L125 18.5L125 18L124.5 17.25L124.5 17.5L124.5 18.5L123.5 18L123.5 17.5L123.5 17L123 16.5L122.5 17L122 16.5L122 16L121 15L120 15L121 16L121 16.5L120.5 16.5L120 16L119.5 15.5L119.5 16.5L120.5 17.5L119.5 17.5L119 17L119 17.5L118.5 16.5L118.5 15.5L117.5 16L117.5 17C117.333 17 117 17.1 117 17.5C117 17.9 116.667 17 116.5 16.5L116 16.5L116 17.5L116 18L115.5 17.5L115 17.5L115 16.5L114.5 17L114 18L113.5 17.5L113.5 17L113 16.5L112.5 17L112.5 17.5L112 17L111.5 16.5L111 16.5L110.5 17L109.5 16L109 16.5L108.5 15.5L108.5 15L107.5 15L107.5 15.5L108 16L107 16.5L107 16L106 16L105.5 16.5L104.5 16L104 16L104.5 15.5L104 15L103 16L102.5 16L102.5 15.5L102.5 15L101.5 15L101 15.5L100 15.5C99.6 15.5 99.8333 15.1667 100 15L99 15L98.5 15.5L97.5 15.5L97 15L97 15.5L97 16.5L96 16.5L95.5 16.5L95.5 18.5L95 17.5L94.5 17.5L94.5 18L93.5 18L93 18L92.5 18.5L92 19.5L91.5 19.5L91.5 19L91 19L90.5 20L90 20L90 19.5L89.5 20.5L89.5 21L88.5 21L88 20.5L87 20.5L87 21.5L86 21.5L86 20.5L85.5 21.5L85.5 22L85.5 23C85.5 23.4 85.1667 22.5 85 22L84.5 21.5L85 21L84.5 20.5L83.5 21L83.5 21.5L82.5 21.5L82.5 22L81.5 22L80.5 21.5L80 22L81 22.5L81.5 22.5L81.5 23.5L81 23.5L81 24L80.5 24L80.5 23L80 23L79 23L79 22.5L78 22.5L78 23L77.5 23L77 22.5L76.5 22.5L76.5 23.5L76 23L76 22.5L75.5 22.5L75.5 23.5L75 24L74.5 23.5L74 23L74 23.5L73.5 24L73 24L73 23.5L72.5 23L72 24C71.8333 24.1667 71.4 24.5 71 24.5C70.6 24.5 70.8333 24.1667 71 24L70.5 24L70 24L69 24.5L69 23.5L68 23.5L68.5 24L68.5 24.5L68 24L67.5 24L67.5 23.5L66.5 23L66.5 23.5L66 23.5L66 22.5L65.5 22.5L65.5 23.5L65 23.5L65 23L64.5 22.5L64 23L63 23C62.8333 22.8333 62.4 22.5 62 22.5L62.5 22.5L62.5 21.5L61.5 21.5L61 22L60 22L60 21L59 21.5L58.5 21.5L58.5 22.5L57.5 23L57.5 22L56.5 22L56 22.5L56 21.5L55.5 21L55 20.5L54.5 20.5L54.5 19.5L54 19L53.5 19L53.5 20L51.5 18L49.5 17.5L49 16.5L48 16L46.5 16.5L45.5 16L45 15L43.5 16L43.5 15L42.5 14.5L41.5 15L40 14L39 13L37.5 12L37 11L36 10L36 11L35 11L33.5 10L33 10.5L32 10L32 9L31.5 8L30.5 8.5C30 8 29.1 6.9 29.5 6.5C29.9 6.1 29 6.66667 28.5 7L27 7C26.6 7 26.5 6.66667 26.5 6.5L26 7L25 7.5L24.5 6.5L23.5 7L23.5 8L22.5 8.5L21 7L20 7L19.5 6L17.5 5L16.5 5.5L15.5 5L15 4.5L13.5 3.5L12.5 4L11.5 4L11 3.5L10.5 2.5L10 2L9 3L8 2.5L7 2.5C6.6 2.5 6.5 2.16667 6.5 2L6 1.5L5 1.5L4 1L3.5 0.5L2.5 1L2 1.5L1.5 1L0.5 1Z" fill="rgb(238.875,242.795,244.611)" fill-rule="nonzero" />
	</g>
</svg>
