

<svg xmlns="http://www.w3.org/2000/svg">
    <symbol id="test" width="100%" height="31"  viewBox="0 0 440 31">
        <g filter="url(#filter0_d_5001_51)">
            <path d="M0.500015 1L1.52588e-05 0L440 0L439 1L437.5 5L436.5 7L438.5 9H437V10L436 10.5H435C435.167 10.8333 435.4 11.5 435 11.5H433.5H432.5L432 10.5L431.5 11L430 11.5V12L431 12.5L430.5 14L429.5 13.5H428.5V14L429.5 14.5L428 15L427 14.5H425.5L424.5 15L424 14.5L422 14L421 14.5L419.5 15L419 14.5L417.5 14L416.5 14.5L416 13.5L415 12.5H414.5V13L413.5 14C413.667 13.8333 414 13.6 414 14V14.5L413.5 15L411 14.5L410.5 14L410 13H409L407.5 14L407 13L406.5 12H405.5H404.5L404 13.5H403L402.5 12.5L402 12L401 12.5V13.5H399.5V13L398.5 12.5L397.5 13L395.5 12.5L395 13.5L394 14.5L393 14H392L390.5 13.5L389.5 14.5V15H387.5L386 16H385L384 15L383.5 14L382 15C381.667 15.1667 381 15.4 381 15C381 14.6 380.333 13.8333 380 13.5L379.5 14V15V16L378.5 16.5L378 15.5L377 16.5L377.5 17.5V19L376.5 19.5L375.5 21L374.5 20.5L374 20L373 19.5L372.5 20V20.5H371.5L371 21.5L370.5 21L369.5 20.5V19.5L368.5 20L368 19.5L367 20V20.5L366 21.5L365 21L365.5 20.5L364 20V21V21.5H362.5L361.5 21L360.5 20L360 21L360.5 22L359.5 22.5L358.5 22H357.5V22.5H356.5L355.5 23.5H354.5L354 22.5L353 23L352 23.5L351.5 23L351 22L350.5 22.5L349.5 23V22.5C349 22.6667 348 22.9 348 22.5C348 22.1 347.667 21 347.5 20.5L347 21.5V22.5L346.5 23.5V24L345.5 24.5L345 24H344H343L342.5 25L343 26H342L342.5 27L341.5 26.5L340.5 25L340 25.5V26.5L341 27L340.5 28H340L339 27L338.5 26.5V27.5L339 28.5C338.667 28.6667 338 28.9 338 28.5V27.5H337V28.5L336 28L335.5 27L335 28L334 27.5H333L332.5 26.5L331 27H329.5L329 26.5L328.5 26L328 26.5H327.5C327.667 26.1667 327.9 25.5 327.5 25.5H326V25L325.5 24H324.5L324 23V24L323 25L322.5 24L322 23.5L321 22.5L321.5 22V21L320.5 22L320 21.5V21L319 20.5L319.5 21.5H318.5L318 21L317.5 21.5L317 21L316.5 20.5V21.5H315.5V20.5L315 20V21L314 21.5L313.5 21L312.5 20.5V22H312L311.5 21.5L311 20.5L310 21L309 20L308 19.5V20.5L307 20L305.5 18.5L305 17.5L304 18.5H303.5L303 17.5L302.5 18.5L301.5 19V18V17L301 18L300.5 18.5L300 18V17.5H299V16.5L298 17L297 17.5L296.5 17V16L295.5 17V18L295 17L294.5 17.5L293.5 18.5L293 18L291 17.5L291.5 18L291 18.5L289.5 17.5L289 18V18.5L287.5 18L287 17L286.5 17.5L287 18.5L288.5 19L288 19.5V20V20.5H287V19.5L286 20L285 19L284.5 17.5L284 16.5H283L282.5 15.5L281.5 14.5L281 15V16L281.5 16.5V17.5L281 17L280 16L279.5 15L279 16V16.5L278.5 16L278 15L277 15.5L276.5 14.5H275.5L275 15.5L274.5 16L274 17H273V17.5L273.5 18H272.5L272 17.5L271.5 18L272 18.5L270.5 18V19H269.5V19.5L269 20L268 19L267.5 19.5L268 20H267L266.5 19V18L266 19V19.5H265V18L264.5 19L263.5 18.5V18L262.5 18.5V17L262 16.5L261.5 17.5L261 18L260 17L259.5 18H259L258.5 17.5L258 18V18.5H257.5L257 17.5L256.5 18V18.5L256 18L255 17.5V17L254.5 17.5V18H254L253.5 17H253V17.5V18H252V17H251.5L251 17.5L250.5 16.5L250 17V16L249.5 16.5V17V17.5L249 18L248.5 17.5V16.5H248H247.5L247 16L246.5 17L246 16.5L245.5 17L245 16.5L244 16V16.5L243.5 17L243 18H242.5V17H242L241.5 17.5L241 18L240.5 17.5L239.5 17V17.5L238.5 18L239 17.5L238 17L237.5 16H236.5L237 16.5V17L236 17.5L235.5 18V17L235 16.5L234 17V17.5L233.5 18L233 17H232V17.5L232.5 18.5H232L231.5 18L230.5 17.5V18L230 18.5L229.5 18L228.5 18.5L228 19L227.5 18L227 17L226.5 18L226 18.5H225.5L224.5 18H224L223.5 19L223 18.5L222.5 19V20H221.5L221 20.5L220 19.5V19L219 18.5L218 17.5V18.5L217.5 19L217 20L216 19L215 19.5L215.5 20.5L214.5 21L213.5 20.5V21.5L214.5 22V23L214 23.5L213.5 23L212.5 22.5V23.5L213 24H211.5L211 23.5L210.5 24.5L210 25L209 24.5H208L207.5 23L206.5 23.5V23V22.5L205.5 23V23.5L205 23V22.5L204.5 22V23H204L203.5 22L203 22.5V23.5L202.5 24V23.5L202 22.5L201.5 23H201V22H200L199.5 21L199 22V22.5H198.5L198 21.5H197.5V22H196.5V21.5L195.5 21V21.5H194.5H194V22L193 22.5V22L192.5 21.5L193 21L192.5 20.5H192V21H191.5L191 20.5L190.5 20V21L190 21.5L189 21L189.5 20.5H188.5V21.5L188 22V21.5L187.5 21L187 22L186.5 21H186V20L185.5 19.5L185 18.5L184 18V18.5L183 18V18.5L182.5 19V19.5L182 19L181.5 18.5L181 19L180.5 18.5H180L179.5 19L179 19.5L178.5 19V18.5H178V19H177.5L177 17.5V16.5H176.5L176 17.5L175.5 17L175 16.5V17L174 17.5V18H173.5L173 17.5V17L172.5 17.5L172 18L171.5 18.5L171 17.5L170.5 16.5V17.5V18.5L170 19V18.5L169.5 18L169 17H168.5L168 17.5H167.5L167 17L166.5 17.5L166 18V16.5L165.5 17V18H165L164.5 19L164 18.5L163.5 17.5V18.5V19H162.5V18L162 17.5L161.5 18H161L160.5 17.5V16.5H160V17L159.5 17.5L159 17V16.5L158.5 17V17.5L158 18V17.5L157.5 17V17.5L157 18V18.5L156.5 18V17L156 17.5L155 18V18.5H154.5L154 18V17H153.5L153 16H152.5L152 16.5V15.5L151.5 15L151 15.5L150.5 16V15L150 14.5V15.5L149.5 16V15L149 15.5V16.5L148 15.5V15L147 14.5V14H146.5V14.5L146 15L145.5 14.5L145 15.5V16H144.5V15.5L144 15L143.5 15.5L144 16L143.5 16.5L143 16L142.5 15H142L141.264 14L141 14.5L141.5 15L142.5 16L142 16.5V16L141 16.5L141.5 17L141.264 17.25L141 17L140.5 16.5H140L140.5 17V17.5L140 18V17.25H139.277L139 18L138.822 17.25L138.5 16.5V17V18L137.5 18.5V17.5L137.249 17.25H136.5L137 18V18.5L136.5 18L136 17.5V18.5L136.5 19L136 19.5L135.5 20V19L135 18.5H134.5L134 19L135 19.5L134.5 20H134L133.5 19.5V19V18.5L132 18L132.5 17.5L131.743 17.25L131 17L130.5 16.5L131 16H130L129.5 16.5H129V16L128.5 16.5V17C128.333 17.0833 127.946 17.25 127.728 17.25C127.51 17.25 127.485 17.0833 127.5 17L127 16.5L126.5 17C126.5 17.0833 126.456 17.25 126.279 17.25C126.102 17.25 126.019 17.0833 126 17V16.5L125.5 17.5V18.5H125V18L124.5 17.25V17.5V18.5L123.5 18V17.5V17L123 16.5L122.5 17L122 16.5V16L121 15H120L121 16V16.5H120.5L120 16L119.5 15.5V16.5L120.5 17.5H119.5L119 17V17.5L118.5 16.5V15.5L117.5 16V17C117.333 17 117 17.1 117 17.5C117 17.9 116.667 17 116.5 16.5H116V17.5V18L115.5 17.5H115V16.5L114.5 17L114 18L113.5 17.5V17L113 16.5L112.5 17V17.5L112 17L111.5 16.5H111L110.5 17L109.5 16L109 16.5L108.5 15.5V15H107.5V15.5L108 16L107 16.5V16H106L105.5 16.5L104.5 16H104L104.5 15.5L104 15L103 16H102.5V15.5V15H101.5L101 15.5H100C99.6 15.5 99.8334 15.1667 100 15H99L98.5 15.5H97.5L97 15V15.5V16.5H96H95.5V18.5L95 17.5H94.5V18H93.5H93L92.5 18.5L92 19.5H91.5V19H91L90.5 20H90V19.5L89.5 20.5V21H88.5L88 20.5H87V21.5H86V20.5L85.5 21.5V22V23C85.5 23.4 85.1667 22.5 85 22L84.5 21.5L85 21L84.5 20.5L83.5 21V21.5H82.5V22H81.5L80.5 21.5L80 22L81 22.5H81.5V23.5H81V24H80.5V23H80H79V22.5H78V23H77.5L77 22.5H76.5V23.5L76 23V22.5H75.5V23.5L75 24L74.5 23.5L74 23V23.5L73.5 24H73V23.5L72.5 23L72 24C71.8334 24.1667 71.4 24.5 71 24.5C70.6 24.5 70.8334 24.1667 71 24H70.5H70L69 24.5V23.5H68L68.5 24V24.5L68 24H67.5V23.5L66.5 23V23.5H66V22.5H65.5V23.5H65V23L64.5 22.5L64 23H63C62.8333 22.8333 62.4 22.5 62 22.5H62.5V21.5H61.5L61 22H60V21L59 21.5H58.5V22.5L57.5 23V22H56.5L56 22.5V21.5L55.5 21L55 20.5H54.5V19.5L54 19H53.5V20L51.5 18L49.5 17.5L49 16.5L48 16L46.5 16.5L45.5 16L45 15L43.5 16V15L42.5 14.5L41.5 15L40 14L39 13L37.5 12L37 11L36 10V11H35L33.5 10L33 10.5L32 10V9L31.5 8L30.5 8.5C30 8 29.1 6.9 29.5 6.5C29.9 6.1 29 6.66667 28.5 7H27C26.6 7 26.5 6.66667 26.5 6.5L26 7L25 7.5L24.5 6.5L23.5 7V8L22.5 8.5L21 7H20L19.5 6L17.5 5L16.5 5.5L15.5 5L15 4.5L13.5 3.5L12.5 4H11.5L11 3.5L10.5 2.5L10 2L9.00002 3L8.00002 2.5H7.00002C6.60002 2.5 6.50002 2.16667 6.50002 2L6.00002 1.5H5.00002L4.00002 1L3.50002 0.5L2.50002 1L2.00002 1.5L1.50002 1H0.500015Z" fill="white" />
        </g>
        <defs>
            <filter id="filter0_d_5001_51" x="1.52588e-05" y="0" width="440" height="30.7208" filterUnits="userSpaceOnUse"
            color-interpolation-filters="sRGB">
            <feFlood flood-opacity="0" result="BackgroundImageFix" />
            <feColorMatrix in="SourceAlpha" type="matrix" values="0 0 0 0 0 0 0 0 0 0 0 0 0 0 0 0 0 0 127 0" result="hardAlpha" />
            <feOffset dy="2" />
            <feComposite in2="hardAlpha" operator="out" />
            <feColorMatrix type="matrix" values="0 0 0 0 0.882353 0 0 0 0 0.894118 0 0 0 0 0.901961 0 0 0 1 0" />
            <feBlend mode="normal" in2="BackgroundImageFix" result="effect1_dropShadow_5001_51" />
            <feBlend mode="normal" in="SourceGraphic" in2="effect1_dropShadow_5001_51" result="shape" />
            </filter>
        </defs>
  </symbol>
  <symbol width="100%" viewBox="0 0 8 13" id="arrow">
        <path d="M4 0.249878C3.58579 0.249878 3.25 0.585664 3.25 0.999878V9.0946L1.54883 7.26648C1.26667 6.96354 0.792397 6.94651 0.489258 7.22839C0.186098 7.51065 0.168919 7.98578 0.451172 8.28894L3.45117 11.5106L4 12.1005L4.54883 11.5106L7.54883 8.28894C7.83108 7.98578 7.8139 7.51065 7.51074 7.22839C7.2076 6.94651 6.73333 6.96354 6.45117 7.26648L4.75 9.0946V0.999878C4.75 0.585665 4.41421 0.249879 4 0.249878Z" />
  </symbol> 
  <symbol  viewBox="0 0 10 12" id="tik-tok">
        <path d="M8.75469 2.56637C8.67682 2.52451 8.60101 2.47862 8.52755 2.42888C8.31393 2.282 8.11807 2.10893 7.94419 1.9134C7.50914 1.39568 7.34666 0.870457 7.28681 0.502725H7.28921C7.23922 0.19749 7.25989 0 7.26301 0H5.28148V7.9691C5.28148 8.0761 5.28148 8.18184 5.27715 8.28634C5.27715 8.29934 5.27595 8.31134 5.27523 8.32533C5.27523 8.33108 5.27523 8.33708 5.27403 8.34308C5.27403 8.34458 5.27403 8.34608 5.27403 8.34758C5.25314 8.63351 5.16501 8.90972 5.01739 9.15192C4.86978 9.39411 4.6672 9.59486 4.42747 9.73651C4.17763 9.88435 3.89505 9.96189 3.6076 9.9615C2.68438 9.9615 1.93613 9.17854 1.93613 8.21159C1.93613 7.24464 2.68438 6.46168 3.6076 6.46168C3.78237 6.46151 3.95605 6.49011 4.12222 6.54642L4.12462 4.44803C3.62019 4.38026 3.10773 4.42195 2.61957 4.57048C2.13141 4.71901 1.67814 4.97115 1.28836 5.31099C0.946824 5.61962 0.659692 5.98788 0.439887 6.39918C0.356242 6.54917 0.0406479 7.15189 0.0024305 8.13009C-0.0216056 8.68532 0.138715 9.26054 0.21515 9.49828V9.50328C0.263222 9.64327 0.449502 10.121 0.753077 10.5237C0.99787 10.8468 1.28708 11.1306 1.61141 11.3659V11.3609L1.61621 11.3659C2.57549 12.0439 3.63909 11.9994 3.63909 11.9994C3.82321 11.9917 4.43997 11.9994 5.14038 11.6542C5.91723 11.2714 6.35949 10.7012 6.35949 10.7012C6.64204 10.3605 6.8667 9.97222 7.02385 9.55302C7.20316 9.0628 7.26301 8.47483 7.26301 8.23984V4.01205C7.28705 4.02705 7.60721 4.24729 7.60721 4.24729C7.60721 4.24729 8.06846 4.55477 8.7881 4.75501C9.3044 4.89751 10 4.9275 10 4.9275V2.88161C9.75627 2.9091 9.26137 2.82911 8.75469 2.56637Z" fill="#EFF3F5" />
  </symbol>
  <symbol viewBox="0 0 6 12" id="fb">
        <path d="M4.90459 1.9925H6V0.0845C5.81102 0.0585 5.16107 0 4.40413 0C2.82476 0 1.74286 0.9935 1.74286 2.8195V4.5H0V6.633H1.74286V12H3.87968V6.6335H5.55204L5.81751 4.5005H3.87918V3.031C3.87968 2.4145 4.04566 1.9925 4.90459 1.9925Z" fill="#EFF3F5" />
  </symbol>
  <symbol viewBox="0 0 12 10" id="yt">
        <path d="M6.00195 0.5C6.02594 0.500091 8.4214 0.515687 10.0078 0.629883L10.0293 0.631836C10.0471 0.634193 10.0671 0.637201 10.0889 0.639648C10.352 0.669289 10.8992 0.730677 11.3818 1.23926C11.7995 1.67196 11.901 2.5235 11.9111 2.61914L11.9121 2.62402C11.9157 2.66391 11.9999 3.61136 12 4.5625V5.45215C12 6.40318 11.9157 7.35074 11.9121 7.39062L11.9102 7.40234C11.8984 7.49609 11.7835 8.32875 11.3857 8.75684C10.9085 9.27664 10.3701 9.33315 10.1113 9.36035C10.0867 9.36288 10.0639 9.36554 10.0439 9.36816L10.0225 9.37012C8.43605 9.48432 6.04059 9.49991 6.0166 9.5H6.00977C5.888 9.49828 3.01559 9.45545 2.09961 9.36914L2.07227 9.36523C2.04361 9.36025 2.00095 9.35612 1.95215 9.35059C1.64346 9.3156 1.06994 9.25018 0.616211 8.75879C0.200839 8.32629 0.0991805 7.4918 0.0888672 7.39648L0.0878906 7.39062C0.0843206 7.35074 2.42154e-05 6.40318 0 5.45215V4.5625C4.91574e-06 3.61136 0.0843202 2.66382 0.0878906 2.62402L0.0898438 2.6123C0.101654 2.51875 0.216464 1.68589 0.614258 1.25781C1.09837 0.730518 1.64021 0.668406 1.90039 0.638672C1.9206 0.636339 1.93917 0.634082 1.95605 0.631836L1.97754 0.629883C3.57823 0.515669 5.97406 0.500091 5.99805 0.5H6.00195ZM5.12207 3.20605C4.96153 3.12583 4.77161 3.12869 4.61426 3.21387C4.45721 3.29911 4.36345 3.44935 4.36328 3.61621V6.38379C4.36328 6.5502 4.45687 6.70077 4.61328 6.78613C4.69493 6.83068 4.78527 6.85351 4.87598 6.85352C4.9591 6.85352 5.04248 6.83458 5.11914 6.79688L7.91113 5.4248C8.07675 5.34339 8.18069 5.18652 8.18164 5.01465C8.18231 4.84274 8.08009 4.68425 7.91504 4.60156L5.12207 3.20605Z" fill="#EFF3F5" />
  </symbol>
  <symbol viewBox="0 0 12 12" id="insta">
          <path d="M6.00195 0C7.56534 0 7.76611 0.00663303 8.3877 0.0361328C9.02258 0.0641569 9.46719 0.167505 9.86035 0.319336C10.2745 0.475368 10.652 0.721323 10.9639 1.03711L10.791 1.21289L10.9668 1.04004L11.0811 1.1582C11.3442 1.44542 11.5479 1.77917 11.6865 2.14551C11.8387 2.53712 11.9427 2.98432 11.9707 3.61914C11.9979 4.23859 12 4.43944 12 6.00098C12 7.56454 11.993 7.76475 11.9658 8.38379C11.9378 9.01924 11.8346 9.46403 11.6826 9.85742C11.3586 10.6954 10.6956 11.3585 9.85742 11.6826C9.46562 11.835 9.01819 11.9378 8.38281 11.9658C7.76364 11.9931 7.56379 12 6 12C4.43622 12 4.23629 11.9931 3.61719 11.9658C2.98188 11.9378 2.53692 11.8345 2.14355 11.6826C1.72911 11.5264 1.35199 11.28 1.04004 10.9639L1.21387 10.7891L1.03809 10.9619L1.03906 10.9639C0.722612 10.6519 0.47605 10.2757 0.317383 9.85645C0.165339 9.46504 0.0621828 9.01824 0.0341797 8.38379C0.00698275 7.76475 0 7.56454 0 6.00098C4.77443e-07 4.4381 0.00663226 4.23759 0.0361328 3.61621C0.0641658 2.98134 0.167454 2.53675 0.319336 2.14355C0.456107 1.78085 0.661668 1.44617 0.922852 1.15918L1.03711 1.04102L1.21387 1.21289L1.04004 1.03711C1.35238 0.718488 1.72772 0.475434 2.14551 0.317383C2.53699 0.165366 2.98435 0.0621929 3.61914 0.0341797C4.23825 0.0069894 4.43837 8.2604e-07 6.00195 0ZM6 3.1582C4.43119 3.15837 3.15837 4.43111 3.1582 6C3.1582 7.56903 4.43109 8.84261 6 8.84277C7.56914 8.84277 8.84277 7.56914 8.84277 6C8.84261 4.43101 7.56903 3.1582 6 3.1582ZM9.47363 1.2627C8.77646 1.26291 8.21119 1.82802 8.21094 2.52539C8.21094 3.22283 8.77628 3.78884 9.47363 3.78906C10.1713 3.78906 10.7373 3.22299 10.7373 2.52539C10.7371 1.82785 10.1711 1.2627 9.47363 1.2627Z" fill="#EFF3F5" />
  </symbol>
  <symbol viewBox="0 0 14 14" id="tel">
          <path d="M1.40623 0.000488281C1.21088 0.000709761 1.01755 0.0408516 0.838852 0.119629C0.660171 0.198406 0.499871 0.313562 0.368149 0.45752C0.236379 0.601584 0.135612 0.771684 0.0732269 0.956543C0.0108603 1.14138 -0.0117441 1.33749 0.00584412 1.53174C0.236926 3.70315 0.977383 5.78989 2.16698 7.62256C3.24771 9.31987 4.6899 10.7588 6.39061 11.8374C8.21858 13.0204 10.2989 13.7597 12.4648 13.9946C12.6601 14.0122 12.8572 13.989 13.043 13.9263C13.2286 13.8636 13.3995 13.7626 13.5439 13.6304C13.6883 13.4981 13.8033 13.3369 13.8818 13.1577C13.9603 12.9785 14.0008 12.7849 14 12.5894V10.4819C14.0086 10.1374 13.8892 9.80152 13.666 9.53857C13.4428 9.27573 13.1309 9.10334 12.789 9.05518C12.1132 8.96622 11.4492 8.8018 10.8105 8.56396C10.5586 8.46951 10.2846 8.44838 10.0215 8.50439C9.75833 8.56045 9.51651 8.69155 9.32518 8.88037L8.43163 9.77197C6.66938 8.77191 5.21005 7.31588 4.20799 5.55713L5.10252 4.66455C5.29151 4.47369 5.42137 4.23263 5.47752 3.97021C5.53367 3.7075 5.51364 3.43358 5.41893 3.18213C5.18068 2.54485 5.01489 1.88285 4.92577 1.2085C4.87795 0.870897 4.7092 0.561671 4.45018 0.339355C4.19125 0.117166 3.86 -0.00279833 3.51854 0.000488281H1.40623Z" fill="#0A0F13" />
  </symbol>
  <symbol viewBox="0 0 41 9" id="union">
          <path d="M36.5 0C38.9853 0 41 2.01472 41 4.5C41 6.98528 38.9853 9 36.5 9C35.4354 9 34.4573 8.63028 33.6869 8.01223C32.1204 6.7554 30.5084 5 28.5 5C26.4916 5 24.8796 6.7554 23.3131 8.01223C22.5427 8.63028 21.5646 9 20.5 9C19.4354 9 18.4573 8.63028 17.6869 8.01223C16.1204 6.7554 14.5084 5 12.5 5C10.4916 5 8.87961 6.7554 7.31306 8.01223C6.54272 8.63028 5.56462 9 4.5 9C2.01472 9 0 6.98528 0 4.5C0 2.01472 2.01472 0 4.5 0C5.56462 0 6.54271 0.369723 7.31306 0.98777C8.87961 2.2446 10.4916 4 12.5 4C14.5084 4 16.1204 2.2446 17.6869 0.987771C18.4573 0.369723 19.4354 0 20.5 0C21.5646 0 22.5427 0.369723 23.3131 0.98777C24.8796 2.2446 26.4916 4 28.5 4C30.5084 4 32.1204 2.2446 33.6869 0.987771C34.4573 0.369723 35.4354 0 36.5 0Z" fill="#0A0F13" />
  </symbol>
  <symbol viewBox="0 0 22 23" id="clover">
      <path d="M16.5794 5.91952C17.6959 7.03601 17.6959 8.8462 16.5794 9.96269C16.1191 10.423 15.5409 10.6935 14.9421 10.7742C13.6023 10.9548 11.9761 10.8598 11.0201 11.8157C10.0642 12.7717 10.1592 14.3979 9.9785 15.7378C9.89774 16.3366 9.62721 16.9149 9.16691 17.3752C8.05042 18.4916 6.24024 18.4916 5.12375 17.3752C4.00726 16.2587 4.00726 14.4485 5.12375 13.332C5.58405 12.8717 6.16225 12.6012 6.76115 12.5204C8.10096 12.3397 9.72722 12.4347 10.6832 11.4788C11.6391 10.5228 11.5441 8.8966 11.7247 7.55679C11.8054 6.95795 12.0759 6.3798 12.5362 5.91952C13.6527 4.80304 15.4629 4.80304 16.5794 5.91952Z" fill="#0A0F13" />
      <path d="M16.5794 17.3752C15.4629 18.4916 13.6527 18.4916 12.5362 17.3752C12.0759 16.9149 11.8054 16.3367 11.7247 15.7379C11.5441 14.3981 11.6391 12.7719 10.6832 11.8159C9.72722 10.8599 8.10096 10.955 6.76115 10.7743C6.16225 10.6935 5.58405 10.423 5.12375 9.96269C4.00726 8.8462 4.00726 7.03601 5.12375 5.91952C6.24024 4.80304 8.05042 4.80304 9.16691 5.91952C9.62721 6.37982 9.89774 6.95803 9.9785 7.55692C10.1592 8.89673 10.0642 10.523 11.0201 11.479C11.9761 12.4349 13.6023 12.3398 14.9421 12.5205C15.5409 12.6012 16.1191 12.8717 16.5794 13.332C17.6959 14.4485 17.6959 16.2587 16.5794 17.3752Z" fill="#0A0F13" />
  </symbol>
</svg>

